<svg width="64" height="64" viewBox="0 0 64 64" fill="none" xmlns="http://www.w3.org/2000/svg">
<g filter="url(#filter0_d_2271_1281)">
<path d="M21.3337 42.6667V29.3334M32.0003 42.6667V21.3334M42.667 42.6667V37.3334M48.0003 10.6667H16.0003C14.5858 10.6667 13.2293 11.2286 12.2291 12.2288C11.2289 13.229 10.667 14.5855 10.667 16V48C10.667 49.4145 11.2289 50.7711 12.2291 51.7713C13.2293 52.7715 14.5858 53.3334 16.0003 53.3334H48.0003C49.4148 53.3334 50.7714 52.7715 51.7716 51.7713C52.7718 50.7711 53.3337 49.4145 53.3337 48V16C53.3337 14.5855 52.7718 13.229 51.7716 12.2288C50.7714 11.2286 49.4148 10.6667 48.0003 10.6667Z" stroke="url(#paint0_linear_2271_1281)" stroke-width="5" stroke-linecap="round" stroke-linejoin="round" shape-rendering="crispEdges"/>
</g>
<defs>
<filter id="filter0_d_2271_1281" x="3.16699" y="5.16669" width="57.667" height="57.6667" filterUnits="userSpaceOnUse" color-interpolation-filters="sRGB">
<feFlood flood-opacity="0" result="BackgroundImageFix"/>
<feColorMatrix in="SourceAlpha" type="matrix" values="0 0 0 0 0 0 0 0 0 0 0 0 0 0 0 0 0 0 127 0" result="hardAlpha"/>
<feOffset dy="2"/>
<feGaussianBlur stdDeviation="2.5"/>
<feComposite in2="hardAlpha" operator="out"/>
<feColorMatrix type="matrix" values="0 0 0 0 0 0 0 0 0 0 0 0 0 0 0 0 0 0 0.1 0"/>
<feBlend mode="normal" in2="BackgroundImageFix" result="effect1_dropShadow_2271_1281"/>
<feBlend mode="normal" in="SourceGraphic" in2="effect1_dropShadow_2271_1281" result="shape"/>
</filter>
<linearGradient id="paint0_linear_2271_1281" x1="32.0003" y1="10.6667" x2="32.0003" y2="53.3334" gradientUnits="userSpaceOnUse">
<stop offset="0.653846" stop-color="#91C3FF"/>
<stop offset="1" stop-color="#6C9EDB"/>
</linearGradient>
</defs>
</svg>
