<svg width="64" height="64" viewBox="0 0 64 64" fill="none" xmlns="http://www.w3.org/2000/svg">
<g filter="url(#filter0_d_2271_1291)">
<path fill-rule="evenodd" clip-rule="evenodd" d="M12.8663 27.6078H21.8797C22.2023 27.6078 22.733 27.6078 23.2183 27.648C23.8183 27.6982 24.8423 27.8387 25.925 28.4085C26.9981 28.974 27.8842 29.8079 28.485 30.8179C29.0877 31.8343 29.237 32.7981 29.2903 33.3628C29.3357 33.8221 29.333 34.319 29.333 34.6227V48.2008C29.333 48.5045 29.333 49.0039 29.2903 49.4607C29.237 50.0254 29.0903 50.9892 28.4823 52.0081C27.8815 53.0182 26.9955 53.852 25.9223 54.4176C25.0888 54.8489 24.1668 55.1073 23.2183 55.1755C22.7303 55.2157 22.2023 55.2157 21.8797 55.2157H12.7863C12.4663 55.2157 11.933 55.2157 11.4477 55.1755C10.499 55.1065 9.57702 54.8472 8.74367 54.415C7.67054 53.8495 6.78453 53.0156 6.18367 52.0056C5.72446 51.2213 5.44896 50.3536 5.37567 49.4607C5.33301 49.0014 5.33301 48.5045 5.33301 48.2008V34.6227C5.33301 34.3216 5.33301 33.8196 5.37567 33.3628C5.42901 32.7981 5.57834 31.8343 6.18367 30.8179C6.78453 29.8079 7.67054 28.974 8.74367 28.4085C9.57702 27.9763 10.499 27.717 11.4477 27.648C11.9357 27.6078 12.4637 27.6078 12.7863 27.6078H12.8663ZM10.837 33.2699C10.6663 33.5561 10.6663 33.9325 10.6663 34.7005V48.128C10.6663 48.8885 10.6663 49.2699 10.837 49.5536C10.9572 49.7556 11.1344 49.9223 11.349 50.0354C11.653 50.1961 12.0557 50.1961 12.8663 50.1961H21.7997C22.6103 50.1961 23.0157 50.1961 23.3197 50.0354C23.5333 49.922 23.7096 49.7552 23.829 49.5536C23.9997 49.2699 23.9997 48.891 23.9997 48.1255V34.698C23.9997 33.935 23.9997 33.5561 23.829 33.2674C23.7084 33.0664 23.5313 32.9005 23.317 32.7881C23.0157 32.6274 22.613 32.6274 21.7997 32.6274H12.8663C12.0557 32.6274 11.653 32.6274 11.3463 32.7881C11.1327 32.9015 10.9565 33.0683 10.837 33.2699ZM12.8663 5.01959H21.8797C22.2023 5.01959 22.733 5.01959 23.2183 5.05975C23.8183 5.10995 24.8423 5.25049 25.925 5.82022C26.9981 6.38573 27.8842 7.21962 28.485 8.22963C29.0877 9.2461 29.237 10.2099 29.2903 10.7746C29.3357 11.2339 29.333 11.7308 29.333 12.0345V18.0831C29.333 18.3868 29.333 18.8863 29.2903 19.343C29.237 19.9077 29.0903 20.8715 28.4823 21.8905C27.8815 22.9005 26.9955 23.7344 25.9223 24.2999C25.0888 24.7312 24.1668 24.9897 23.2183 25.0579C22.7303 25.1005 22.2023 25.098 21.8797 25.098H12.7863C12.4663 25.098 11.933 25.098 11.4477 25.0579C10.499 24.9889 9.57702 24.7296 8.74367 24.2974C7.67054 23.7319 6.78453 22.898 6.18367 21.888C5.72446 21.1037 5.44896 20.2359 5.37567 19.343C5.33301 18.8837 5.33301 18.3868 5.33301 18.0831V12.0345C5.33301 11.7333 5.33301 11.2314 5.37567 10.7746C5.42901 10.2099 5.57834 9.2461 6.18367 8.22963C6.78453 7.21962 7.67054 6.38573 8.74367 5.82022C9.57702 5.38802 10.499 5.12872 11.4477 5.05975C11.9357 5.01959 12.4637 5.01959 12.7863 5.01959H12.8663ZM10.837 10.6817C10.6663 10.9678 10.6663 11.3443 10.6663 12.1098V18.0078C10.6663 18.7708 10.6663 19.1523 10.837 19.4384C10.9576 19.6395 11.1347 19.8054 11.349 19.9178C11.653 20.0784 12.053 20.0784 12.8663 20.0784H21.7997C22.6103 20.0784 23.0157 20.0784 23.3197 19.9178C23.5333 19.8043 23.7096 19.6376 23.829 19.4359C23.9997 19.1523 23.9997 18.7733 23.9997 18.0078V12.1098C23.9997 11.3468 23.9997 10.9678 23.829 10.6792C23.7084 10.4781 23.5313 10.3122 23.317 10.1998C23.0157 10.0392 22.613 10.0392 21.7997 10.0392H12.8663C12.0557 10.0392 11.653 10.0392 11.3463 10.1998C11.1327 10.3133 10.9565 10.48 10.837 10.6817ZM42.1997 32.6274H51.213C51.5357 32.6274 52.0663 32.6274 52.5517 32.5873C53.1517 32.5371 54.1757 32.399 55.2583 31.8268C56.3315 31.2613 57.2175 30.4274 57.8183 29.4174C58.4237 28.4009 58.5703 27.4372 58.6237 26.8725C58.6663 26.4132 58.6663 25.9162 58.6663 25.6125V12.0345C58.6663 11.7333 58.6663 11.2314 58.6237 10.7746C58.5504 9.88171 58.2749 9.01396 57.8157 8.22963C57.2148 7.21962 56.3288 6.38573 55.2557 5.82022C54.4223 5.38802 53.5003 5.12872 52.5517 5.05975C52.0637 5.01959 51.5357 5.01959 51.213 5.01959H42.1197C41.7997 5.01959 41.2663 5.01959 40.781 5.05975C40.181 5.10995 39.157 5.25049 38.077 5.82022C37.0039 6.38573 36.1179 7.21962 35.517 8.22963C35.0578 9.01396 34.7823 9.88171 34.709 10.7746C34.6663 11.2339 34.6663 11.7308 34.6663 12.0345V25.6125C34.6663 25.9162 34.6663 26.4157 34.709 26.8725C34.7623 27.4372 34.9117 28.4009 35.517 29.4199C36.1179 30.4299 37.0039 31.2638 38.077 31.8293C39.157 32.3965 40.181 32.5371 40.781 32.5873C41.269 32.6299 41.797 32.6274 42.1197 32.6274H42.1997ZM40.1703 26.9653C39.9997 26.6792 39.9997 26.3027 39.9997 25.5372V12.1098C39.9997 11.3468 39.9997 10.9678 40.1703 10.6792C40.2909 10.4781 40.4681 10.3122 40.6823 10.1998C40.9863 10.0392 41.3863 10.0392 42.2023 10.0392H51.1357C51.9437 10.0392 52.349 10.0392 52.6503 10.1998C52.865 10.3129 53.0422 10.4797 53.1623 10.6817C53.333 10.9678 53.333 11.3468 53.333 12.1098V25.5372C53.333 26.3002 53.333 26.6792 53.1623 26.9678C53.0418 27.1689 52.8646 27.3348 52.6503 27.4472C52.349 27.6078 51.9437 27.6078 51.133 27.6078H42.1997C41.389 27.6078 40.9863 27.6078 40.6797 27.4472C40.466 27.3337 40.2898 27.167 40.1703 26.9653ZM42.1997 55.2157H51.213C51.5357 55.2157 52.0663 55.2157 52.5517 55.1755C53.1517 55.1253 54.1757 54.9848 55.2583 54.415C56.3315 53.8495 57.2175 53.0156 57.8183 52.0056C58.4237 50.9892 58.5703 50.0254 58.6237 49.4607C58.6663 49.0014 58.6663 48.5045 58.6663 48.2008V42.1521C58.6663 41.851 58.6663 41.349 58.6237 40.8922C58.5504 39.9994 58.2749 39.1316 57.8157 38.3473C57.2148 37.3373 56.3288 36.5034 55.2557 35.9379C54.4223 35.5057 53.5003 35.2464 52.5517 35.1774C52.0637 35.1372 51.5357 35.1372 51.213 35.1372H42.1197C41.7997 35.1372 41.2663 35.1372 40.781 35.1774C40.181 35.2276 39.157 35.3681 38.077 35.9379C37.0039 36.5034 36.1179 37.3373 35.517 38.3473C35.0578 39.1316 34.7823 39.9994 34.709 40.8922C34.6663 41.3515 34.6663 41.8485 34.6663 42.1521V48.2008C34.6663 48.5045 34.6663 49.0039 34.709 49.4607C34.7623 50.0254 34.9117 50.9892 35.517 52.0081C36.1179 53.0182 37.0039 53.852 38.077 54.4176C39.157 54.9873 40.181 55.1253 40.781 55.1755C41.269 55.2157 41.797 55.2157 42.1197 55.2157H42.1997ZM40.1703 49.5536C39.9997 49.2699 39.9997 48.891 39.9997 48.1255V42.2274C39.9997 41.4645 39.9997 41.0855 40.1703 40.7968C40.2909 40.5958 40.4681 40.4299 40.6823 40.3175C40.9863 40.1568 41.389 40.1568 42.2023 40.1568H51.1357C51.9437 40.1568 52.349 40.1568 52.6503 40.3175C52.8637 40.4304 53.0423 40.5961 53.1623 40.7994C53.333 41.0855 53.333 41.4645 53.333 42.2299V48.128C53.333 48.8885 53.333 49.2699 53.1623 49.5536C53.0422 49.7556 52.865 49.9223 52.6503 50.0354C52.349 50.1961 51.9437 50.1961 51.133 50.1961H42.1997C41.389 50.1961 40.9863 50.1961 40.6797 50.0354C40.466 49.922 40.2898 49.7552 40.1703 49.5536Z" fill="url(#paint0_linear_2271_1291)"/>
</g>
<defs>
<filter id="filter0_d_2271_1291" x="0.333008" y="2.01959" width="63.333" height="60.1961" filterUnits="userSpaceOnUse" color-interpolation-filters="sRGB">
<feFlood flood-opacity="0" result="BackgroundImageFix"/>
<feColorMatrix in="SourceAlpha" type="matrix" values="0 0 0 0 0 0 0 0 0 0 0 0 0 0 0 0 0 0 127 0" result="hardAlpha"/>
<feOffset dy="2"/>
<feGaussianBlur stdDeviation="2.5"/>
<feComposite in2="hardAlpha" operator="out"/>
<feColorMatrix type="matrix" values="0 0 0 0 0 0 0 0 0 0 0 0 0 0 0 0 0 0 0.1 0"/>
<feBlend mode="normal" in2="BackgroundImageFix" result="effect1_dropShadow_2271_1291"/>
<feBlend mode="normal" in="SourceGraphic" in2="effect1_dropShadow_2271_1291" result="shape"/>
</filter>
<linearGradient id="paint0_linear_2271_1291" x1="31.9997" y1="5.01959" x2="31.9997" y2="55.2157" gradientUnits="userSpaceOnUse">
<stop offset="0.653846" stop-color="#91C3FF"/>
<stop offset="1" stop-color="#6C9EDB"/>
</linearGradient>
</defs>
</svg>
