<svg width="64" height="64" viewBox="0 0 64 64" fill="none" xmlns="http://www.w3.org/2000/svg">
<g filter="url(#filter0_d_2271_1283)">
<path fill-rule="evenodd" clip-rule="evenodd" d="M43.3143 9.37335C43.8144 8.87343 44.4926 8.59259 45.1997 8.59259C45.9068 8.59259 46.5849 8.87343 47.085 9.37335L54.6263 16.9147C54.881 17.1607 55.0842 17.4549 55.2239 17.7803C55.3637 18.1056 55.4373 18.4555 55.4403 18.8096C55.4434 19.1637 55.3759 19.5148 55.2419 19.8426C55.1078 20.1703 54.9098 20.468 54.6594 20.7184C54.409 20.9688 54.1113 21.1668 53.7836 21.3009C53.4558 21.435 53.1047 21.5024 52.7506 21.4994C52.3965 21.4963 52.0466 21.4227 51.7213 21.283C51.3959 21.1432 51.1017 20.94 50.8557 20.6854L48.9703 18.8L35.7703 32L39.5437 35.7707C40.0392 36.266 40.4322 36.854 40.7004 37.5012C40.9685 38.1484 41.1065 38.8421 41.1065 39.5427C41.1065 40.2433 40.9685 40.937 40.7004 41.5842C40.4322 42.2314 40.0392 42.8194 39.5437 43.3147L32.8903 49.9654C31.1394 51.7165 28.9354 52.9454 26.5253 53.5144C24.1152 54.0833 21.5942 53.9699 19.245 53.1867L16.717 52.344C15.5375 51.9514 14.4657 51.2893 13.5867 50.4103C12.7077 49.5313 12.0456 48.4595 11.653 47.28L10.8103 44.752C10.0272 42.4028 9.91372 39.8819 10.4827 37.4718C11.0516 35.0617 12.2806 32.8576 14.0317 31.1067L20.685 24.4534C21.6852 23.4535 23.0415 22.8918 24.4557 22.8918C25.8699 22.8918 27.2262 23.4535 28.2263 24.4534L31.9997 28.2294L45.1997 15.0294L43.3143 13.144C42.8144 12.6439 42.5336 11.9658 42.5336 11.2587C42.5336 10.5516 42.8144 9.87343 43.3143 9.37335ZM28.229 32L24.4583 28.2294L17.805 34.88C16.7543 35.9305 16.017 37.2528 15.6755 38.6987C15.334 40.1447 15.4019 41.6572 15.8717 43.0667L16.717 45.5974C16.848 45.9897 17.0684 46.3463 17.3609 46.6388C17.6534 46.9313 18.01 47.1517 18.4023 47.2827L20.933 48.1254C22.3423 48.5954 23.8546 48.6638 25.3006 48.3228C26.7465 47.9818 28.0689 47.2449 29.1197 46.1947L35.7703 39.5414L31.9997 35.7707L30.1143 37.656C29.6114 38.1418 28.9378 38.4106 28.2386 38.4045C27.5394 38.3984 26.8706 38.118 26.3762 37.6235C25.8817 37.1291 25.6013 36.4603 25.5952 35.7611C25.5891 35.0619 25.8579 34.3883 26.3437 33.8854L28.229 32Z" fill="url(#paint0_linear_2271_1283)"/>
</g>
<defs>
<filter id="filter0_d_2271_1283" x="5.12598" y="5.59259" width="55.3145" height="55.2784" filterUnits="userSpaceOnUse" color-interpolation-filters="sRGB">
<feFlood flood-opacity="0" result="BackgroundImageFix"/>
<feColorMatrix in="SourceAlpha" type="matrix" values="0 0 0 0 0 0 0 0 0 0 0 0 0 0 0 0 0 0 127 0" result="hardAlpha"/>
<feOffset dy="2"/>
<feGaussianBlur stdDeviation="2.5"/>
<feComposite in2="hardAlpha" operator="out"/>
<feColorMatrix type="matrix" values="0 0 0 0 0 0 0 0 0 0 0 0 0 0 0 0 0 0 0.1 0"/>
<feBlend mode="normal" in2="BackgroundImageFix" result="effect1_dropShadow_2271_1283"/>
<feBlend mode="normal" in="SourceGraphic" in2="effect1_dropShadow_2271_1283" result="shape"/>
</filter>
<linearGradient id="paint0_linear_2271_1283" x1="32.7832" y1="8.59259" x2="32.7832" y2="53.8711" gradientUnits="userSpaceOnUse">
<stop offset="0.653846" stop-color="#91C3FF"/>
<stop offset="1" stop-color="#6C9EDB"/>
</linearGradient>
</defs>
</svg>
